Coordinates
version=1
nRows=4
nColumns=63
inDegrees=yes

Units are S.I. units (second, meters, Newtons, ...)
If the header above contains a line with 'inDegrees', this indicates whether rotational values are in degrees (yes) or radians (no).

endheader
time	pelvis_tilt	pelvis_list	pelvis_rotation	pelvis_tx	pelvis_ty	pelvis_tz	hip_flexion_r	hip_adduction_r	hip_rotation_r	knee_angle_r	knee_angle_r_beta	ankle_angle_r	subtalar_angle_r	mtp_angle_r	hip_flexion_l	hip_adduction_l	hip_rotation_l	knee_angle_l	knee_angle_l_beta	ankle_angle_l	subtalar_angle_l	mtp_angle_l	L5_S1_Flex_Ext	L5_S1_Lat_Bending	L5_S1_axial_rotation	L4_L5_Flex_Ext	L4_L5_Lat_Bending	L4_L5_axial_rotation	L3_L4_Flex_Ext	L3_L4_Lat_Bending	L3_L4_axial_rotation	L2_L3_Flex_Ext	L2_L3_Lat_Bending	L2_L3_axial_rotation	L1_L2_Flex_Ext	L1_L2_Lat_Bending	L1_L2_axial_rotation	L1_T12_Flex_Ext	L1_T12_Lat_Bending	L1_T12_axial_rotation	Abs_r3	Abs_r2	Abs_r1	Abs_t1	Abs_t2	neck_flexion	neck_bending	neck_rotation	arm_flex_r	arm_add_r	arm_rot_r	elbow_flex_r	pro_sup_r	wrist_flex_r	wrist_dev_r	arm_flex_l	arm_add_l	arm_rot_l	elbow_flex_l	pro_sup_l	wrist_flex_l	wrist_dev_l
      3.40677966	     -0.56535976	     -0.25143444	    100.32239552	      0.41921863	      0.70295038	      1.03720301	      4.46580950	     -0.74400703	    -10.49832653	     13.21829734	      0.23070281	     27.41169208	     -0.60909136	      0.00000000	      2.16943308	     -1.10101820	     -1.97017993	     10.20279069	      0.17807229	     27.63387896	     11.80975107	      0.00000000	      0.05913417	     -0.21294680	      1.06612349	      0.10981807	     -0.28321925	      1.13275621	      0.09715153	     -0.51775885	      1.13275621	      0.06758445	     -0.51775885	      0.93285806	      0.05491199	     -0.43424112	      0.86622534	      0.03378927	     -0.32985460	      0.79959262	      0.42238949	     -2.40889680	      5.92945903	      0.00000000	      0.00000000	     26.54397019	      0.72360166	    -20.20399293	     13.30215721	    -27.84710883	    -15.23830785	    138.63405473	     85.14124519	     -2.14784490	     -1.14581093	     28.45442570	     -9.38435709	     17.84840337	    138.25699795	     88.61947215	     -7.81251429	     -1.24904869
      3.42372881	     -0.50165934	     -0.33538986	     99.81377253	      0.41940930	      0.70293207	      1.03794874	      4.67982797	     -0.76665549	    -10.49632436	     13.42852658	      0.23437200	     27.45441522	      0.27982304	      0.00000000	      2.26351476	     -1.12628248	     -2.19762773	     10.21372865	      0.17826319	     27.61149879	     11.53122367	      0.00000000	      0.06087413	     -0.19016218	      1.14638591	      0.11304936	     -0.25291571	      1.21803503	      0.10001012	     -0.46236034	      1.21803503	      0.06957305	     -0.46236034	      1.00308767	      0.05652772	     -0.38777873	      0.93143855	      0.03478348	     -0.29456122	      0.85978943	      0.43481786	     -2.15115266	      6.37585451	      0.00000000	      0.00000000	     26.17901133	      0.54368311	    -21.66158266	      9.32484453	    -27.28207449	    -17.00042248	    140.03377512	     83.53698838	     -4.65626152	     -1.52780158	     24.76571077	    -10.11694580	     16.53640343	    138.50319255	     88.18854790	     -8.37467558	      2.30576296
      3.44067797	     -0.48554338	     -0.50180910	     99.52564773	      0.41960180	      0.70282978	      1.03845005	      4.87254993	     -0.78165254	    -10.32961428	     13.45678278	      0.23486517	     27.45612795	      0.59013220	      0.00000000	      2.43595523	     -1.10165760	     -2.37171894	     10.17871459	      0.17765208	     27.52915630	     11.38099231	      0.00000000	      0.08676973	     -0.16843553	      1.08336866	      0.16114007	     -0.22401926	      1.15107920	      0.14255399	     -0.40953415	      1.15107920	      0.09916913	     -0.40953415	      0.94794757	      0.08057437	     -0.34347373	      0.88023703	      0.04958022	     -0.26090664	      0.81252649	      0.61978752	     -1.90537641	      6.02537146	      0.00000000	      0.00000000	     25.61498160	      0.42718609	    -21.75758547	      5.94981729	    -25.88530404	    -18.47593838	    141.23891649	     82.82421069	     -5.32348308	     -1.92386255	     20.81067743	    -11.28667278	     14.80944697	    138.41509420	     87.58880428	     -9.26826690	      3.60491348
      3.45762712	     -0.54471217	     -0.45662371	     99.23862063	      0.42015754	      0.70258005	      1.03901114	      4.90067298	     -0.82035542	     -9.99695756	     13.59429674	      0.23726524	     27.73619018	      0.84776884	      0.00000000	      2.45222246	     -1.06156129	     -2.51246343	     10.29150992	      0.17962073	     27.63624475	     11.22019875	      0.00000000	      0.07001237	     -0.15597707	      1.01128692	      0.13001998	     -0.20744950	      1.07449235	      0.11502333	     -0.37924265	      1.07449235	      0.08001714	     -0.37924265	      0.88487605	      0.06501349	     -0.31806844	      0.82167062	      0.04000507	     -0.24160848	      0.75846519	      0.50009139	     -1.76444381	      5.62447444	      0.00000000	      0.00000000	     25.21607925	      0.26928428	    -21.92606089	      2.92261117	    -24.09501422	    -19.87285159	    142.20001511	     82.30146985	     -5.71380643	     -2.49367707	     17.42595597	    -12.49194740	     13.04172014	    138.02378676	     87.01070403	    -10.31564294	      4.75436163
